<svg width="42" height="44" viewBox="0 0 42 44" fill="none" xmlns="http://www.w3.org/2000/svg">
<path d="M32.935 17.5451C32.935 17.8934 32.8125 18.2418 32.55 18.5168C32.0425 19.0484 31.2025 19.0484 30.695 18.5168L21 8.36011L11.305 18.5168C10.7975 19.0484 9.95746 19.0484 9.44996 18.5168C8.94246 17.9851 8.94246 17.1051 9.44996 16.5734L20.0725 5.44511C20.58 4.91344 21.42 4.91344 21.9275 5.44511L32.55 16.5734C32.8125 16.8484 32.935 17.1968 32.935 17.5451Z" fill="black"/>
<path d="M22.3125 6.72825L22.3125 37.5833C22.3125 38.3349 21.7175 38.9583 21 38.9583C20.2825 38.9583 19.6875 38.3349 19.6875 37.5833L19.6875 6.72825C19.6875 5.97659 20.2825 5.35325 21 5.35325C21.7175 5.35325 22.3125 5.97659 22.3125 6.72825Z" fill="black"/>
</svg>
