<svg width="47" height="41" viewBox="0 0 47 41" fill="none" xmlns="http://www.w3.org/2000/svg">
<path d="M2.25 2.58334L6.77286 4.09097C8.45356 4.65118 9.69307 6.08603 10.0032 7.83026L12.6578 22.7627C13.0679 25.0695 15.0735 26.75 17.4165 26.75H35.832C37.9848 26.75 39.878 25.3263 40.4754 23.2582L43.9663 11.1748C44.859 8.08411 42.5397 5 39.3226 5H16.75M19.1667 35.2083C19.1667 37.2103 17.5437 38.8333 15.5417 38.8333C13.5396 38.8333 11.9167 37.2103 11.9167 35.2083C11.9167 33.2064 13.5396 31.5833 15.5417 31.5833C17.5437 31.5833 19.1667 33.2064 19.1667 35.2083ZM38.5 35.2083C38.5 37.2103 36.877 38.8333 34.875 38.8333C32.873 38.8333 31.25 37.2103 31.25 35.2083C31.25 33.2064 32.873 31.5833 34.875 31.5833C36.877 31.5833 38.5 33.2064 38.5 35.2083Z" stroke="white" stroke-width="4" stroke-linecap="round"/>
</svg>
